<svg xmlns="http://www.w3.org/2000/svg" xmlns:xlink="http://www.w3.org/1999/xlink" xml:space="preserve"
     width="850" height="250">
    <!-- change color on dark mode -->
    <style>path{fill:#000}@media (prefers-color-scheme:dark){path{fill:#fff}}</style>
    <defs>
        <linearGradient xlink:href="#b" id="d" x1=".148" x2=".845" y1=".851" y2=".154"
                        gradientTransform="matrix(90.00328 0 0 89.99937 228 67.003)"
                        gradientUnits="userSpaceOnUse"/>
        <linearGradient id="b" x1=".148" x2=".845" y1=".851" y2=".154"
                        gradientTransform="matrix(26.301 0 0 26.331 90.674 911.757)" gradientUnits="userSpaceOnUse">
            <stop offset="0" stop-color="#004ba6" style="stop-color:#0050ff;stop-opacity:1"/>
            <stop offset="1" stop-color="#00bfe1" style="stop-color:#00b4e6;stop-opacity:1"/></linearGradient>
    </defs>
    <!-- circle -->
    <path fill="url(#c)"
          d="m305.28 88.005-7.39 7.345c-1.302 1.167-1.932 3.043-1.201 4.63 4.922 10.3 3.053 22.582-5.027 30.654-8.082 8.07-20.378 9.935-30.69 5.016-1.52-.682-3.302-.104-4.472 1.08l-7.512 7.502a3.995 3.995 0 0 0 .72 6.265 45.018 45.018 0 0 0 55.074-6.618 44.897 44.897 0 0 0 6.77-54.995 3.995 3.995 0 0 0-6.272-.88zm-63.925-7.98a44.893 44.893 0 0 0-6.992 54.988 3.995 3.995 0 0 0 6.272.88l7.352-7.304c1.333-1.163 1.98-3.06 1.243-4.667-4.926-10.3-3.06-22.583 5.023-30.655 8.08-8.073 20.378-9.939 30.69-5.02 1.503.672 3.26.114 4.435-1.038l7.553-7.547a3.988 3.988 0 0 0-.72-6.265 45.032 45.032 0 0 0-55.015 6.83z"
          style="fill:url(#d)"/>
    <!-- rustdesk -->
    <path d="M360.074 101.501q3.545-.222 3.545 3.03 0 1.622-.814 2.436-.81.81-2.804.96l-2.215.22q-4.652.443-6.944 3.25-2.215 2.804-2.215 6.792v16.914q0 1.772-1.032 2.658-1.038.886-2.658.886-1.627 0-2.735-.886-1.032-.886-1.032-2.658v-30.058q0-1.696 1.032-2.585 1.108-.96 2.735-.96 1.474 0 2.436.96 1.032.886 1.032 2.513v3.544q1.478-3.25 4.286-4.95 2.803-1.696 6.348-1.994zm36.039 0q1.696 0 2.658.96 1.032.961 1.032 2.657v30.057q0 1.551-1.032 2.51-1.038.962-2.734.962-1.551 0-2.51-.886-.96-.962-.96-2.513v-2.804q-1.7 3.102-4.727 4.725-2.953 1.627-6.647 1.627-13.143 0-13.143-14.476v-19.202q0-1.696.958-2.658 1.036-.96 2.804-.96 1.704 0 2.662.96 1.035.962 1.035 2.658v19.13q0 4.354 1.773 6.424 1.772 2.066 5.462 2.066 4.358 0 6.944-2.804 2.659-2.807 2.659-7.46v-17.356q0-1.623 1.03-2.582 1.036-1.035 2.736-1.035zm26.658 37.292q-7.533 0-12.334-3.102-1.33-.81-1.918-1.696-.52-.886-.52-1.994 0-1.184.666-1.994.664-.813 1.696-.813.962 0 3.032 1.18 2.216 1.184 4.282 1.921 2.143.738 5.317.738 3.545 0 5.539-1.254 1.994-1.256 1.994-3.544 0-1.478-.814-2.365-.737-.886-2.658-1.55-1.918-.738-5.684-1.55-6.501-1.403-9.381-3.767-2.804-2.437-2.804-6.574 0-3.174 1.845-5.684 1.845-2.586 5.095-3.988 3.25-1.405 7.384-1.405 2.956 0 5.76.813 2.804.738 4.95 2.216 2.434 1.627 2.434 3.766 0 1.18-.738 1.994-.664.813-1.627.813-.66 0-1.325-.297-.665-.295-1.773-.96-1.994-1.18-3.766-1.844-1.696-.665-4.282-.665-3.102 0-5.023 1.33-1.845 1.33-1.845 3.617 0 2.066 1.696 3.25 1.773 1.108 6.574 2.14 4.95 1.035 7.754 2.364 2.804 1.33 3.988 3.323 1.256 1.921 1.256 4.95 0 4.798-4.064 7.754-3.987 2.877-10.706 2.877zm40.32-5.833q1.627.15 2.288.886.738.665.738 1.921 0 1.475-1.177 2.285-1.108.74-3.323.595l-1.998-.149q-5.981-.443-8.934-3.617-2.956-3.254-2.956-9.526v-17.357h-4.431q-3.247 0-3.247-2.88 0-1.33.81-2.066.886-.814 2.437-.814h4.43v-7.605q0-1.696.963-2.659 1.032-.958 2.735-.958 1.696 0 2.727.958 1.039.96 1.039 2.66v7.604h7.307q1.55 0 2.365.814.886.737.886 2.066 0 1.406-.886 2.143-.814.737-2.365.737h-7.31v17.872q0 3.472 1.4 5.096 1.48 1.627 4.432 1.845zm37.88-47.116q1.7 0 2.735.962 1.035.96 1.035 2.583v45.637q0 1.7-1.035 2.66-.96.961-2.658.961-1.696 0-2.735-.962-.96-.959-.96-2.659v-2.952q-1.622 3.25-4.724 5.02-3.101 1.7-7.165 1.7-4.65 0-8.343-2.362-3.617-2.364-5.687-6.646-1.994-4.286-1.994-9.824 0-5.612 1.994-9.82 2.07-4.21 5.687-6.498 3.618-2.292 8.343-2.292 4.064 0 7.092 1.772 3.102 1.7 4.726 4.874V89.243q0-1.55.958-2.437 1.039-.962 2.735-.962zm-13.732 47.043q4.798 0 7.457-3.323 2.658-3.323 2.658-9.454 0-6.127-2.658-9.45-2.583-3.323-7.457-3.323-4.873 0-7.608 3.323-2.66 3.247-2.66 9.302 0 6.057 2.736 9.526 2.735 3.4 7.532 3.4zm56.123-3.693q1.035 0 1.697.813.668.81.668 2.067 0 2.142-2.66 3.617-2.585 1.478-5.686 2.292-3.03.81-5.833.81-8.568 0-13.514-4.947-4.95-5.02-4.95-13.663 0-5.538 2.143-9.82 2.215-4.282 6.127-6.647 3.99-2.364 9.01-2.364 7.238 0 11.448 4.652 4.209 4.653 4.209 12.556 0 2.952-2.66 2.952h-22.817q.737 11.448 11.004 11.448 2.73 0 4.725-.737 1.994-.74 4.21-1.922.22-.149 1.18-.588 1.035-.52 1.7-.52zm-12.85-22.376q-4.281 0-6.867 2.734-2.586 2.732-3.101 7.678h19.052q-.221-5.019-2.586-7.68-2.288-2.732-6.497-2.732zm36.26 31.975q-7.531 0-12.332-3.102-1.33-.81-1.922-1.696-.515-.886-.515-1.994 0-1.184.664-1.994.665-.813 1.696-.813.963 0 3.03 1.18 2.215 1.184 4.285 1.921 2.139.738 5.317.738 3.544 0 5.538-1.254 1.994-1.256 1.994-3.544 0-1.478-.813-2.365-.738-.886-2.66-1.55-1.92-.738-5.686-1.55-6.498-1.403-9.378-3.767-2.804-2.437-2.804-6.574 0-3.174 1.845-5.684 1.845-2.586 5.096-3.988 3.247-1.405 7.384-1.405 2.952 0 5.76.813 2.804.738 4.95 2.216 2.433 1.627 2.433 3.766 0 1.18-.737 1.994-.665.813-1.627.813-.661 0-1.326-.297-.664-.295-1.772-.96-1.994-1.18-3.766-1.844-1.7-.665-4.286-.665-3.101 0-5.02 1.33-1.848 1.33-1.848 3.617 0 2.066 1.7 3.25 1.772 1.108 6.574 2.14 4.946 1.035 7.754 2.364 2.803 1.33 3.987 3.323 1.253 1.921 1.253 4.95 0 4.798-4.06 7.754-3.988 2.877-10.707 2.877zm53.317-6.349q1.329 1.108 1.329 2.731 0 1.402-.96 2.437-.958 1.035-2.287 1.035-1.405 0-2.513-1.038l-18.388-16.242v13.66q0 1.772-1.032 2.734-1.035.886-2.658.886-1.627 0-2.735-.886-1.031-.962-1.031-2.735v-45.56q0-1.774 1.03-2.66 1.109-.962 2.736-.962 1.623 0 2.658.962 1.032.886 1.032 2.66v28.945l16.837-15.73q1.257-1.108 2.437-1.108 1.406 0 2.437 1.036 1.035 1.035 1.035 2.436 0 1.402-1.256 2.586l-13.144 12.036z"/>
    <!-- Your remote desktop -->
    <path d="M421.8 160.4q.3-.4.7-.4.5 0 .8.3.3.4.3.8t-.3.7l-5.3 6.7v6.5q0 .6-.4 1-.3.2-.8.2t-.8-.3q-.3-.3-.3-.9v-6.5l-5.4-6.7q-.3-.3-.3-.7 0-.5.3-.8.4-.3.8-.3.5 0 .8.4l5 6.2zm6.6 15.9q-1.6 0-2.9-.8-1.2-.7-1.9-2-.6-1.3-.6-3t.6-3q.7-1.3 2-2 1.2-.7 2.8-.7 1.6 0 2.8.7 1.3.7 2 2 .6 1.3.6 3t-.6 3q-.7 1.3-2 2-1.2.8-2.8.8zm0-1.9q1.5 0 2.3-1 .8-1 .8-2.9t-.8-2.9q-.8-1-2.3-1-1.5 0-2.3 1-.8 1-.8 3 0 1.8.8 2.8.8 1 2.3 1zm16.5-9.6q.6 0 .9.3.3.3.3.8v9.2q0 .5-.3.8-.4.3-.9.3t-.8-.3q-.2-.3-.2-.7v-.9q-.6 1-1.5 1.5-1 .5-2 .5-4 0-4-4.5V166q0-.5.2-.8.3-.3.9-.3.5 0 .8.3.3.3.3.8v5.9q0 1.3.6 2 .5.6 1.6.6 1.4 0 2.2-.9.8-.8.8-2.3V166q0-.5.3-.8.3-.3.8-.3zm10.2 0q1 0 1 1 0 .4-.2.7-.2.2-.9.3h-.6q-1.5.2-2.2 1-.6 1-.6 2.1v5.2q0 .6-.4.8-.3.3-.8.3t-.8-.3q-.3-.2-.3-.8V166q0-.5.3-.8.3-.3.8-.3t.8.3q.3.3.3.8v1q.4-1 1.3-1.5t2-.6zm14.3 0q1 0 1 1 0 .4-.2.7l-.9.3h-.7q-1.4.2-2 1-.8 1-.8 2.1v5.2q0 .6-.3.8-.3.3-.8.3t-.8-.3q-.4-.2-.4-.8V166q0-.5.4-.8.3-.3.8-.3t.8.3q.3.3.3.8v1q.4-1 1.3-1.5.8-.5 2-.6zm10.9 8.5q.3 0 .5.3.2.2.2.6 0 .6-.8 1.1-.8.5-1.8.7-.9.3-1.7.3-2.7 0-4.2-1.6-1.5-1.5-1.5-4.2 0-1.7.6-3 .7-1.3 2-2 1.1-.7 2.7-.7 2.2 0 3.5 1.4 1.3 1.4 1.3 3.8 0 1-.8 1h-7q.2 3.5 3.3 3.5.9 0 1.5-.3l1.3-.6.4-.1zm-4-6.9q-1.3 0-2 .9-.9.8-1 2.3h5.8q0-1.5-.8-2.3-.7-.9-2-.9zm20-1.6q3.7 0 3.7 4.4v6q0 .4-.3.7-.3.3-.8.3t-.9-.3q-.3-.3-.3-.8v-5.9q0-1.3-.5-2-.5-.6-1.5-.6-1.3 0-2 .9-.7.8-.7 2.3v5.3q0 .5-.3.8-.4.3-.9.3t-.8-.3q-.3-.3-.3-.8v-5.9q0-1.3-.5-2-.5-.6-1.6-.6-1.2 0-2 .9-.7.8-.7 2.3v5.3q0 .5-.3.8-.3.3-.8.3t-.9-.3q-.3-.3-.3-.8V166q0-.5.3-.8.4-.3.9-.3.4 0 .7.3.4.3.4.8v.8q.5-1 1.3-1.4 1-.5 2-.5 1.3 0 2.2.5.8.5 1.2 1.6.5-1 1.5-1.5 1-.6 2.2-.6zm11.7 11.5q-1.7 0-3-.8-1.2-.7-1.8-2-.7-1.3-.7-3t.7-3q.6-1.3 1.9-2 1.2-.7 2.9-.7t2.8.7q1.3.7 2 2 .6 1.3.6 3t-.7 3q-.6 1.3-1.9 2-1.2.8-2.8.8zm0-1.9q1.5 0 2.3-1 .8-1 .8-2.9t-.8-2.9q-.9-1-2.3-1t-2.4 1q-.8 1-.8 3 0 1.8.8 2.8.8 1 2.4 1zm13.3 0q.5.1.7.3.2.2.2.6 0 .5-.3.7-.4.3-1 .2h-.7q-1.8-.2-2.7-1.1-1-1-1-3v-5.3h-1.3q-1 0-1-.9 0-.4.3-.6.3-.3.7-.3h1.4v-2.3q0-.5.3-.8.3-.3.8-.3t.9.3q.3.3.3.8v2.3h2.2q.5 0 .7.3.3.2.3.6 0 .4-.3.7-.2.2-.7.2H519v5.5q0 1 .4 1.6.5.4 1.4.5zm11.2-1q.4 0 .6.2.2.2.2.6 0 .6-.8 1.1-.8.5-1.8.7-1 .3-1.8.3-2.6 0-4.1-1.6-1.5-1.5-1.5-4.2 0-1.7.6-3 .7-1.3 1.9-2t2.8-.7q2.2 0 3.5 1.4 1.3 1.4 1.3 3.8 0 1-.9 1h-7q.3 3.5 3.4 3.5.9 0 1.5-.3l1.3-.6.3-.1.5-.2zm-3.9-7q-1.3 0-2.1.9-.8.8-1 2.3h5.9q0-1.5-.8-2.3-.7-.9-2-.9zm22.3-6.4q.5 0 .8.3.4.3.4.8v14q0 .5-.4.8-.3.3-.8.3t-.8-.3q-.3-.3-.3-.8v-1q-.5 1-1.5 1.6-1 .6-2.2.6-1.4 0-2.5-.8-1.1-.7-1.8-2-.6-1.3-.6-3 0-1.8.6-3 .7-1.3 1.8-2 1-.7 2.5-.7 1.3 0 2.2.5 1 .5 1.5 1.5V161q0-.4.3-.7.3-.3.8-.3zm-4.2 14.4q1.5 0 2.3-1 .8-1 .8-2.9t-.8-2.9q-.8-1-2.3-1-1.5 0-2.3 1-.9 1-.9 2.9 0 1.8.9 2.9.8 1 2.3 1zm17.2-1q.3 0 .5.2t.2.6q0 .6-.8 1.1-.8.5-1.7.7-1 .3-1.8.3-2.6 0-4.2-1.6-1.5-1.5-1.5-4.2 0-1.7.7-3t1.9-2q1.2-.7 2.7-.7 2.2 0 3.5 1.4 1.3 1.4 1.3 3.8 0 1-.8 1h-7q.2 3.5 3.4 3.5.8 0 1.4-.3.7-.2 1.3-.6l.4-.1.5-.2zm-4-7q-1.2 0-2 .9-.8.8-1 2.3h5.9q-.1-1.5-.8-2.3-.7-.9-2-.9zm11.2 9.9q-2.3 0-3.8-1-.4-.2-.6-.5l-.1-.6q0-.4.2-.6.2-.3.5-.3t1 .4l1.2.6q.7.2 1.7.2t1.7-.4q.6-.4.6-1 0-.5-.3-.8-.2-.3-.8-.5l-1.7-.5q-2-.4-3-1.1-.8-.8-.8-2 0-1 .6-1.8t1.6-1.2q1-.4 2.2-.4 1 0 1.8.2.9.2 1.5.7.8.5.8 1.1 0 .4-.3.7-.2.2-.5.2h-.4q-.2 0-.5-.4l-1.2-.5q-.5-.2-1.3-.2-1 0-1.5.4-.6.4-.6 1 0 .7.5 1 .6.4 2 .7 1.6.3 2.4.8.9.4 1.2 1 .4.6.4 1.5 0 1.5-1.2 2.4-1.2.9-3.3.9zm16.4-2q.4.3.4.8t-.3.8q-.3.3-.7.3-.5 0-.8-.3l-5.6-5v4.2q0 .5-.4.8-.3.3-.8.3t-.8-.3q-.3-.3-.3-.8v-14q0-.5.3-.8.3-.3.8-.3t.8.3q.4.3.4.8v8.9l5.1-4.8q.4-.4.8-.4t.7.3q.3.4.3.8t-.3.8l-4 3.7zm7.7.2q.5 0 .7.2.3.2.3.6 0 .5-.4.7-.3.3-1 .2h-.6q-1.9-.2-2.8-1.1-.9-1-.9-3v-5.3h-1.3q-1 0-1-.9 0-.4.2-.6.3-.3.8-.3h1.3v-2.3q0-.5.3-.8.3-.3.9-.3.5 0 .8.3.3.3.3.8v2.3h2.3q.4 0 .7.3.3.2.3.6 0 .4-.3.7-.3.2-.7.2h-2.3v5.5q0 1 .4 1.6.5.4 1.4.5zm7.4 1.8q-1.6 0-2.8-.8-1.3-.7-2-2-.6-1.3-.6-3t.6-3q.7-1.3 2-2 1.2-.7 2.8-.7 1.6 0 2.9.7 1.2.7 1.9 2t.7 3q0 1.7-.7 3t-2 2q-1.1.8-2.8.8zm0-1.9q1.5 0 2.3-1 .9-1 .9-2.9t-.9-2.9q-.8-1-2.3-1-1.5 0-2.3 1-.8 1-.8 3 0 1.8.8 2.8.8 1 2.3 1zm14-9.6q1.4 0 2.5.7t1.7 2q.7 1.3.7 3 0 1.8-.6 3t-1.8 2q-1.1.8-2.6.8-1.2 0-2.2-.6-.9-.5-1.4-1.5v5q0 .5-.3.8-.3.3-.8.3t-.9-.3q-.3-.3-.3-.8v-13.3q0-.5.3-.8.3-.3.9-.3.5 0 .8.3.3.3.3.8v1q.5-1 1.4-1.6 1-.5 2.2-.5zm-.6 9.6q1.5 0 2.3-1 .8-1 .8-2.8 0-2-.8-3t-2.3-1q-1.5 0-2.3 1-.8 1-.8 3 0 1.8.8 2.8.8 1 2.3 1z"/>
</svg>